<svg xmlns="http://www.w3.org/2000/svg" xmlns:xlink="http://www.w3.org/1999/xlink" width="500" zoomAndPan="magnify" viewBox="0 0 375 374.999991" height="500" preserveAspectRatio="xMidYMid meet" version="1.0"><defs><g/><clipPath id="306487919d"><path d="M 109 111 L 148 111 L 148 150 L 109 150 Z M 109 111 " clip-rule="nonzero"/></clipPath><clipPath id="7f36a6429a"><path d="M 118.679688 162.765625 L 95.875 139.960938 L 137.773438 98.066406 L 160.574219 120.871094 Z M 118.679688 162.765625 " clip-rule="nonzero"/></clipPath><clipPath id="e1297a105b"><path d="M 95.84375 139.929688 L 118.644531 162.730469 L 160.542969 120.835938 L 137.738281 98.03125 Z M 95.84375 139.929688 " clip-rule="nonzero"/></clipPath><clipPath id="e117699f22"><path d="M 85 128 L 107 128 L 107 150 L 85 150 Z M 85 128 " clip-rule="nonzero"/></clipPath><clipPath id="e119698040"><path d="M 114.097656 144.539062 L 101.367188 157.265625 L 77.503906 133.402344 L 90.230469 120.675781 Z M 114.097656 144.539062 " clip-rule="nonzero"/></clipPath><clipPath id="10d61f19da"><path d="M 101.210938 157.425781 L 113.941406 144.695312 L 90.074219 120.832031 L 77.347656 133.558594 Z M 101.210938 157.425781 " clip-rule="nonzero"/></clipPath></defs><rect x="-37.5" width="450" fill="#ffffff" y="-37.499999" height="449.999989" fill-opacity="1"/><rect x="-37.5" width="450" fill="#ffcb05" y="-37.499999" height="449.999989" fill-opacity="1"/><g fill="#f4f6fc" fill-opacity="1"><g transform="translate(62.151687, 230.374849)"><g><path d="M 44 1.328125 C 36.226562 1.328125 29.429688 -0.375 23.609375 -3.78125 C 17.796875 -7.1875 13.238281 -11.90625 9.9375 -17.9375 C 6.644531 -23.976562 5 -30.960938 5 -38.890625 C 5 -46.816406 6.644531 -53.796875 9.9375 -59.828125 C 13.238281 -65.867188 17.796875 -70.59375 23.609375 -74 C 29.429688 -77.414062 36.226562 -79.125 44 -79.125 C 51.707031 -79.125 58.488281 -77.414062 64.34375 -74 C 70.195312 -70.59375 74.753906 -65.867188 78.015625 -59.828125 C 81.273438 -53.796875 82.90625 -46.816406 82.90625 -38.890625 C 82.90625 -30.960938 81.273438 -23.976562 78.015625 -17.9375 C 74.753906 -11.90625 70.195312 -7.1875 64.34375 -3.78125 C 58.488281 -0.375 51.707031 1.328125 44 1.328125 Z M 44 -11.453125 C 51.414062 -11.453125 57.328125 -13.894531 61.734375 -18.78125 C 66.140625 -23.664062 68.34375 -30.367188 68.34375 -38.890625 C 68.34375 -47.410156 66.140625 -54.113281 61.734375 -59 C 57.328125 -63.894531 51.414062 -66.34375 44 -66.34375 C 36.59375 -66.34375 30.664062 -63.894531 26.21875 -59 C 21.78125 -54.113281 19.5625 -47.410156 19.5625 -38.890625 C 19.5625 -30.367188 21.78125 -23.664062 26.21875 -18.78125 C 30.664062 -13.894531 36.59375 -11.453125 44 -11.453125 Z M 44 -11.453125 "/></g></g></g><g fill="#000205" fill-opacity="1"><g transform="translate(142.942591, 230.374849)"><g><path d="M 30 1.328125 C 25.113281 1.328125 20.816406 0.535156 17.109375 -1.046875 C 13.410156 -2.640625 10.445312 -4.84375 8.21875 -7.65625 C 6 -10.476562 4.664062 -13.742188 4.21875 -17.453125 L 18.5625 -17.453125 C 19 -15.296875 20.195312 -13.457031 22.15625 -11.9375 C 24.125 -10.425781 26.664062 -9.671875 29.78125 -9.671875 C 32.894531 -9.671875 35.171875 -10.300781 36.609375 -11.5625 C 38.054688 -12.820312 38.78125 -14.265625 38.78125 -15.890625 C 38.78125 -18.265625 37.742188 -19.875 35.671875 -20.71875 C 33.597656 -21.570312 30.707031 -22.40625 27 -23.21875 C 24.632812 -23.738281 22.226562 -24.367188 19.78125 -25.109375 C 17.332031 -25.847656 15.085938 -26.789062 13.046875 -27.9375 C 11.015625 -29.09375 9.367188 -30.578125 8.109375 -32.390625 C 6.847656 -34.203125 6.21875 -36.441406 6.21875 -39.109375 C 6.21875 -44.003906 8.160156 -48.117188 12.046875 -51.453125 C 15.941406 -54.785156 21.410156 -56.453125 28.453125 -56.453125 C 34.972656 -56.453125 40.175781 -54.929688 44.0625 -51.890625 C 47.945312 -48.859375 50.257812 -44.675781 51 -39.34375 L 37.5625 -39.34375 C 36.75 -43.414062 33.675781 -45.453125 28.34375 -45.453125 C 25.675781 -45.453125 23.617188 -44.929688 22.171875 -43.890625 C 20.722656 -42.859375 20 -41.5625 20 -40 C 20 -38.375 21.070312 -37.078125 23.21875 -36.109375 C 25.375 -35.148438 28.226562 -34.265625 31.78125 -33.453125 C 35.632812 -32.554688 39.171875 -31.570312 42.390625 -30.5 C 45.617188 -29.425781 48.191406 -27.832031 50.109375 -25.71875 C 52.035156 -23.613281 53 -20.597656 53 -16.671875 C 53.082031 -13.265625 52.195312 -10.1875 50.34375 -7.4375 C 48.488281 -4.695312 45.816406 -2.550781 42.328125 -1 C 38.847656 0.550781 34.738281 1.328125 30 1.328125 Z M 30 1.328125 "/></g></g></g><g fill="#000205" fill-opacity="1"><g transform="translate(194.165099, 230.374849)"><g><path d="M 30 1.328125 C 25.113281 1.328125 20.816406 0.535156 17.109375 -1.046875 C 13.410156 -2.640625 10.445312 -4.84375 8.21875 -7.65625 C 6 -10.476562 4.664062 -13.742188 4.21875 -17.453125 L 18.5625 -17.453125 C 19 -15.296875 20.195312 -13.457031 22.15625 -11.9375 C 24.125 -10.425781 26.664062 -9.671875 29.78125 -9.671875 C 32.894531 -9.671875 35.171875 -10.300781 36.609375 -11.5625 C 38.054688 -12.820312 38.78125 -14.265625 38.78125 -15.890625 C 38.78125 -18.265625 37.742188 -19.875 35.671875 -20.71875 C 33.597656 -21.570312 30.707031 -22.40625 27 -23.21875 C 24.632812 -23.738281 22.226562 -24.367188 19.78125 -25.109375 C 17.332031 -25.847656 15.085938 -26.789062 13.046875 -27.9375 C 11.015625 -29.09375 9.367188 -30.578125 8.109375 -32.390625 C 6.847656 -34.203125 6.21875 -36.441406 6.21875 -39.109375 C 6.21875 -44.003906 8.160156 -48.117188 12.046875 -51.453125 C 15.941406 -54.785156 21.410156 -56.453125 28.453125 -56.453125 C 34.972656 -56.453125 40.175781 -54.929688 44.0625 -51.890625 C 47.945312 -48.859375 50.257812 -44.675781 51 -39.34375 L 37.5625 -39.34375 C 36.75 -43.414062 33.675781 -45.453125 28.34375 -45.453125 C 25.675781 -45.453125 23.617188 -44.929688 22.171875 -43.890625 C 20.722656 -42.859375 20 -41.5625 20 -40 C 20 -38.375 21.070312 -37.078125 23.21875 -36.109375 C 25.375 -35.148438 28.226562 -34.265625 31.78125 -33.453125 C 35.632812 -32.554688 39.171875 -31.570312 42.390625 -30.5 C 45.617188 -29.425781 48.191406 -27.832031 50.109375 -25.71875 C 52.035156 -23.613281 53 -20.597656 53 -16.671875 C 53.082031 -13.265625 52.195312 -10.1875 50.34375 -7.4375 C 48.488281 -4.695312 45.816406 -2.550781 42.328125 -1 C 38.847656 0.550781 34.738281 1.328125 30 1.328125 Z M 30 1.328125 "/></g></g></g><g fill="#000205" fill-opacity="1"><g transform="translate(245.387607, 230.374849)"><g><path d="M 26.21875 1.328125 C 21.476562 1.328125 17.585938 0.570312 14.546875 -0.9375 C 11.515625 -2.457031 9.257812 -4.476562 7.78125 -7 C 6.300781 -9.519531 5.5625 -12.296875 5.5625 -15.328125 C 5.5625 -20.441406 7.5625 -24.59375 11.5625 -27.78125 C 15.5625 -30.96875 21.5625 -32.5625 29.5625 -32.5625 L 43.5625 -32.5625 L 43.5625 -33.890625 C 43.5625 -37.671875 42.484375 -40.445312 40.328125 -42.21875 C 38.179688 -44 35.519531 -44.890625 32.34375 -44.890625 C 29.445312 -44.890625 26.925781 -44.203125 24.78125 -42.828125 C 22.632812 -41.460938 21.300781 -39.445312 20.78125 -36.78125 L 6.890625 -36.78125 C 7.265625 -40.78125 8.617188 -44.257812 10.953125 -47.21875 C 13.285156 -50.1875 16.300781 -52.46875 20 -54.0625 C 23.707031 -55.65625 27.859375 -56.453125 32.453125 -56.453125 C 40.304688 -56.453125 46.488281 -54.488281 51 -50.5625 C 55.519531 -46.632812 57.78125 -41.078125 57.78125 -33.890625 L 57.78125 0 L 45.671875 0 L 44.34375 -8.890625 C 42.707031 -5.921875 40.425781 -3.472656 37.5 -1.546875 C 34.570312 0.367188 30.8125 1.328125 26.21875 1.328125 Z M 29.453125 -9.78125 C 33.523438 -9.78125 36.691406 -11.113281 38.953125 -13.78125 C 41.210938 -16.445312 42.640625 -19.742188 43.234375 -23.671875 L 31.109375 -23.671875 C 27.335938 -23.671875 24.632812 -22.984375 23 -21.609375 C 21.375 -20.242188 20.5625 -18.5625 20.5625 -16.5625 C 20.5625 -14.40625 21.375 -12.734375 23 -11.546875 C 24.632812 -10.367188 26.785156 -9.78125 29.453125 -9.78125 Z M 29.453125 -9.78125 "/></g></g></g><g clip-path="url(#306487919d)"><g clip-path="url(#7f36a6429a)"><g clip-path="url(#e1297a105b)"><path fill="#ffffff" d="M 137.835938 140.054688 C 148.289062 129.601562 147.226562 111.59375 147.226562 111.59375 C 147.226562 111.59375 129 110.3125 118.546875 120.765625 C 108.089844 131.21875 109.371094 149.449219 109.371094 149.449219 C 109.371094 149.449219 127.378906 150.507812 137.835938 140.054688 " fill-opacity="1" fill-rule="nonzero"/></g></g></g><g clip-path="url(#e117699f22)"><g clip-path="url(#e119698040)"><g clip-path="url(#10d61f19da)"><path fill="#ffffff" d="M 101.28125 133.730469 C 95.382812 127.832031 85.222656 128.429688 85.222656 128.429688 C 85.222656 128.429688 84.5 138.714844 90.398438 144.613281 C 96.296875 150.511719 106.582031 149.789062 106.582031 149.789062 C 106.582031 149.789062 107.179688 139.628906 101.28125 133.730469 " fill-opacity="1" fill-rule="nonzero"/></g></g></g></svg>